<svg width="46" height="40" viewBox="0 0 46 40" fill="none" xmlns="http://www.w3.org/2000/svg">
<path d="M3.32424 12.0678C14.9371 -12.7924 55.9264 5.27214 42.335 30.9926C37.3027 39.9388 19.4963 41.4872 10.55 38.6485C-0.28866 35.2076 -0.804789 20.9281 3.32424 12.0678Z" fill="#213A6A"/>
<path d="M20.8312 9.49642C21.359 9.20323 21.9546 9.05664 22.5501 9.05664C23.1523 9.05664 23.7974 9.22868 24.3566 9.52976L31.7114 14.347L31.7908 14.4002C32.6717 15.0226 32.8973 16.2665 32.2705 17.1857C31.6254 18.1319 30.3781 18.39 29.4318 17.7878L22.5071 13.2717L15.8404 17.2717V27.4222L15.8384 27.5149C15.7901 28.59 14.9061 29.4437 13.8189 29.4437C12.7007 29.4437 11.7974 28.5405 11.7974 27.4222V16.9276L11.7996 16.8073C11.8409 15.6465 12.4784 14.5405 13.5179 13.9169L20.7007 9.57277L20.8312 9.49642Z" fill="white"/>
<path d="M34.1631 22.734C34.7222 22.691 35.2383 22.863 35.6254 23.2071C36.0125 23.5512 36.3136 24.0673 36.3566 24.5835C36.3968 25.0652 36.2496 25.5844 35.95 25.9662L35.8218 26.1205C35.4088 26.5884 33.0084 28.9706 28.9588 28.9706C25.1116 28.9706 22.7528 26.8207 22.1725 26.2335L22.034 26.0889C21.6899 25.7018 21.5179 25.1426 21.5179 24.6265C21.5609 24.0673 21.819 23.5942 22.2061 23.2501C22.5932 22.9061 23.0663 22.734 23.5394 22.734C24.0985 22.734 24.6577 22.9491 25.0878 23.4222C25.0887 23.4231 25.0901 23.4245 25.092 23.4265C25.1869 23.5237 26.5567 24.9276 28.9588 24.9276C31.1972 24.9276 32.5034 23.7085 32.7463 23.4637L32.8572 23.3465C33.1943 23.0016 33.6412 22.7742 34.1631 22.734Z" fill="white"/>
</svg>
