<svg
    class="fill-current"
    preserveAspectRatio="xMidYMid meet"
    viewBox="0 0 92 92"
    xmlns="http://www.w3.org/2000/svg">
    <rect width="92" height="92" rx="46" fill="white" />
    <path
        d="M19.1667 26.326C19.1667 24.5993 19.7711 23.1747 20.9798 22.0524C22.1884 20.93 23.7598 20.3688 25.6937 20.3688C27.5931 20.3688 29.1299 20.9213 30.3041 22.0265C31.5128 23.1661 32.1171 24.6511 32.1171 26.4814C32.1171 28.1391 31.5301 29.5204 30.3559 30.6256C29.1472 31.7652 27.5586 32.335 25.5901 32.335H25.5383C23.6389 32.335 22.1021 31.7652 20.9279 30.6256C19.7538 29.4859 19.1667 28.0527 19.1667 26.326ZM19.8401 71.6526V37.049H31.3401V71.6526H19.8401ZM37.7117 71.6526H49.2117V52.3305C49.2117 51.1218 49.3499 50.1893 49.6261 49.5332C50.1096 48.359 50.8435 47.3661 51.8277 46.5546C52.812 45.743 54.0466 45.3373 55.5316 45.3373C59.3994 45.3373 61.3334 47.9446 61.3334 53.1593V71.6526H72.8334V51.8125C72.8334 46.7014 71.6247 42.8249 69.2072 40.183C66.7898 37.5411 63.5954 36.2202 59.6239 36.2202C55.1689 36.2202 51.6982 38.1368 49.2117 41.9702V42.0738H49.1599L49.2117 41.9702V37.049H37.7117C37.7808 38.1541 37.8153 41.5902 37.8153 47.3575C37.8153 53.1248 37.7808 61.2231 37.7117 71.6526Z"
        fill="#050816" />
</svg>