<svg preserveAspectRatio="xMidYMid meet" viewBox="0 0 162 162" fill="none"
    xmlns="http://www.w3.org/2000/svg">
    <path
        d="M33.75 46.3567C33.75 43.3161 34.8142 40.8076 36.9426 38.8313C39.0709 36.8549 41.8379 35.8668 45.2432 35.8668C48.5879 35.8668 51.2939 36.8397 53.3615 38.7857C55.4898 40.7925 56.5541 43.4073 56.5541 46.6303C56.5541 49.5492 55.5203 51.9816 53.4527 53.9276C51.3244 55.9344 48.527 56.9377 45.0608 56.9377H44.9696C41.625 56.9377 38.9189 55.9344 36.8514 53.9276C34.7838 51.9208 33.75 49.3972 33.75 46.3567ZM34.9358 126.171V65.2384H55.1858V126.171H34.9358ZM66.4054 126.171H86.6554V92.1472C86.6554 90.0188 86.8987 88.3769 87.3851 87.2215C88.2365 85.1539 89.5287 83.4056 91.2618 81.9766C92.9949 80.5475 95.1689 79.833 97.7838 79.833C104.595 79.833 108 84.4242 108 93.6067V126.171H128.25V91.235C128.25 82.235 126.122 75.409 121.865 70.757C117.608 66.105 111.983 63.779 104.99 63.779C97.1453 63.779 91.0338 67.154 86.6554 73.904V74.0864H86.5642L86.6554 73.904V65.2384H66.4054C66.527 67.1843 66.5878 73.235 66.5878 83.3904C66.5878 93.5458 66.527 107.806 66.4054 126.171Z"
        fill="white" />
</svg>